Coordinates
version=1
nRows=37
nColumns=38
inDegrees=no

Units are S.I. units (second, meters, Newtons, ...)
If the header above contains a line with 'inDegrees', this indicates whether rotational values are in degrees (yes) or radians (no).

endheader
time	pelvis_tilt	pelvis_list	pelvis_rotation	pelvis_tx	pelvis_ty	pelvis_tz	hip_flexion_r	hip_adduction_r	hip_rotation_r	knee_angle_r	ankle_angle_r	subtalar_angle_r	mtp_angle_r	hip_flexion_l	hip_adduction_l	hip_rotation_l	knee_angle_l	ankle_angle_l	subtalar_angle_l	mtp_angle_l	lumbar_extension	lumbar_bending	lumbar_rotation	arm_flex_r	arm_add_r	arm_rot_r	elbow_flex_r	pro_sup_r	wrist_flex_r	wrist_dev_r	arm_flex_l	arm_add_l	arm_rot_l	elbow_flex_l	pro_sup_l	wrist_flex_l	wrist_dev_l
0.68	-1.68116	1.48586	0.132633	0.876177	0.904779	0.920678	0.505671	0.087908	-0.228986	0.289513	0.0595877	0	0	-0.207176	-0.08288	-0.254863	0.387708	0.331579	0	0	-0.0658661	0.0711039	-0.172939	-0.178606	-0.0096789	-0.448072	0.358664	1.13852	0	0	-0.0557865	-0.398507	0.500369	0.728197	0.700754	0	0
0.69	-1.7292	1.48265	0.188041	0.876159	0.8932	0.919912	0.502859	0.0913567	-0.221596	0.299995	0.0643049	0	0	-0.20318	-0.0923859	-0.251654	0.409767	0.328089	0	0	-0.0565419	0.0755431	-0.18017	-0.182812	-0.011161	-0.452049	0.355956	1.14378	0	0	-0.0611549	-0.396382	0.496947	0.728985	0.699475	0	0
0.7	-1.78338	1.4783	0.249938	0.876133	0.881428	0.919129	0.499005	0.0958004	-0.215891	0.304327	0.0672792	0	0	-0.19606	-0.103511	-0.248913	0.435363	0.323217	0	0	-0.0453675	0.0811132	-0.18728	-0.188754	-0.0129387	-0.457212	0.354826	1.14845	0	0	-0.0676379	-0.393583	0.492839	0.729759	0.697641	0	0
0.71	-1.83781	1.47252	0.312245	0.876067	0.869548	0.918404	0.493963	0.101282	-0.212714	0.301479	0.0600606	0	0	-0.185893	-0.116522	-0.246556	0.464446	0.316527	0	0	-0.0329679	0.0878728	-0.193645	-0.19561	-0.0149463	-0.463209	0.353787	1.15284	0	0	-0.0745897	-0.38994	0.488136	0.730085	0.69496	0	0
0.72	-1.88398	1.46501	0.365193	0.875822	0.857661	0.917844	0.488438	0.10809	-0.21205	0.294296	0.0376793	0	0	-0.173396	-0.131781	-0.245562	0.496793	0.307432	0	0	-0.0201837	0.0963235	-0.198236	-0.202718	-0.0172702	-0.470215	0.352582	1.15663	0	0	-0.0816821	-0.38518	0.481975	0.729753	0.691576	0	0
0.73	-1.92456	1.45345	0.411328	0.875309	0.845941	0.917404	0.486299	0.117486	-0.215603	0.288874	0.00520472	0	0	-0.154617	-0.153009	-0.248597	0.537851	0.29663	0	0	-0.00593659	0.108703	-0.201834	-0.212426	-0.0221069	-0.453671	0.355505	1.12027	0	0	-0.0899054	-0.377906	0.469727	0.72884	0.690723	0	0
0.74	-1.93711	1.44464	0.424584	0.874593	0.834352	0.917712	0.485153	0.12436	-0.221773	0.295913	-0.0163422	0	0	-0.142091	-0.169335	-0.248802	0.572778	0.278407	0	0	0.00219181	0.119945	-0.198316	-0.217788	-0.024891	-0.464224	0.352668	1.12823	0	0	-0.0951805	-0.371448	0.463338	0.728569	0.68814	0	0
0.75	-1.94123	1.43537	0.427987	0.873859	0.822918	0.918315	0.487004	0.130461	-0.230635	0.312953	-0.0232715	0	0	-0.126702	-0.187081	-0.250317	0.613505	0.255443	0	0	0.00877544	0.132669	-0.193861	-0.221747	-0.0284112	-0.474816	0.348292	1.13521	0	0	-0.101824	-0.364228	0.453541	0.72997	0.684871	0	0
0.76	-1.93922	1.42808	0.424063	0.873239	0.811547	0.919213	0.489071	0.133925	-0.240412	0.336251	-0.0209887	0	0	-0.110742	-0.202419	-0.250351	0.656328	0.226208	0	0	0.0130195	0.1441	-0.188397	-0.224648	-0.032144	-0.485805	0.342558	1.1412	0	0	-0.109405	-0.356961	0.442733	0.733257	0.681288	0	0
0.77	-1.94216	1.42223	0.425392	0.87279	0.800323	0.920161	0.491249	0.134842	-0.250826	0.360432	-0.0182287	0	0	-0.0909117	-0.215637	-0.247599	0.702911	0.190823	0	0	0.0166754	0.153937	-0.183054	-0.220308	-0.0327349	-0.54418	0.325841	1.20714	0	0	-0.117969	-0.350702	0.432698	0.740514	0.662291	0	0
0.78	-1.93272	1.41821	0.41372	0.872414	0.789198	0.921343	0.487644	0.13652	-0.256704	0.377928	-0.0200332	0	0	-0.072318	-0.226367	-0.241333	0.74936	0.152696	0	0	0.0171942	0.162684	-0.17807	-0.223367	-0.0365754	-0.548414	0.322391	1.19886	0	0	-0.126896	-0.345702	0.425234	0.748315	0.65107	0	0
0.79	-1.92829	1.41436	0.406764	0.871915	0.778351	0.922353	0.482492	0.139833	-0.258955	0.389743	-0.02366	0	0	-0.0497419	-0.236424	-0.23273	0.799552	0.113132	0	0	0.0177432	0.170553	-0.173502	-0.228125	-0.0401594	-0.543581	0.323364	1.18091	0	0	-0.136511	-0.34121	0.416148	0.755973	0.652625	0	0
0.8	-1.93196	1.41047	0.407777	0.871222	0.767861	0.923063	0.47718	0.144651	-0.258869	0.397512	-0.0251682	0	0	-0.0226209	-0.246023	-0.222267	0.852978	0.0729709	0	0	0.0190309	0.177353	-0.168311	-0.231405	-0.0413875	-0.558441	0.323877	1.19093	0	0	-0.144504	-0.339718	0.415819	0.764283	0.641676	0	0
0.81	-1.94246	1.40632	0.415818	0.870406	0.757704	0.923473	0.472028	0.150788	-0.256823	0.402108	-0.0238632	0	0	0.00836672	-0.255057	-0.20982	0.908343	0.0330697	0	0	0.0213652	0.18332	-0.163341	-0.236114	-0.0419922	-0.568974	0.32854	1.19709	0	0	-0.151024	-0.339777	0.419957	0.770606	0.634097	0	0
0.82	-1.95357	1.40215	0.424737	0.869624	0.747832	0.923719	0.466128	0.157825	-0.253451	0.404031	-0.0216843	0	0	0.0412463	-0.263085	-0.195481	0.96419	-0.00578762	0	0	0.024055	0.188678	-0.159625	-0.249535	-0.0458251	-0.521004	0.348748	1.12043	0	0	-0.157239	-0.340935	0.426534	0.776152	0.626053	0	0
0.83	-1.95923	1.39919	0.428813	0.868908	0.738139	0.924164	0.457617	0.164743	-0.248812	0.403301	-0.0202465	0	0	0.0736683	-0.268645	-0.179225	1.01825	-0.044643	0	0	0.0237708	0.193336	-0.151272	-0.25082	-0.0415046	-0.576347	0.351443	1.18519	0	0	-0.157441	-0.342514	0.439031	0.776903	0.626809	0	0
0.84	-1.95193	1.397	0.420135	0.868322	0.728547	0.924909	0.445688	0.172253	-0.24278	0.401171	-0.018981	0	0	0.103159	-0.273168	-0.162987	1.06877	-0.0823193	0	0	0.0221601	0.197643	-0.14754	-0.258312	-0.0434265	-0.555864	0.363666	1.14953	0	0	-0.160689	-0.342097	0.442886	0.776018	0.627291	0	0
0.85	-1.93629	1.39489	0.404345	0.867815	0.718997	0.925912	0.431415	0.180273	-0.235731	0.3979	-0.0169818	0	0	0.13103	-0.277569	-0.146438	1.11545	-0.11888	0	0	0.019329	0.202273	-0.144119	-0.261383	-0.0429797	-0.564945	0.369254	1.15501	0	0	-0.162318	-0.341381	0.448208	0.772402	0.630452	0	0
0.86	-1.91302	1.39354	0.381762	0.867405	0.709462	0.927173	0.414803	0.187569	-0.228673	0.394237	-0.0137397	0	0	0.156247	-0.280904	-0.130163	1.15822	-0.147541	0	0	0.0152156	0.206359	-0.141974	-0.263379	-0.0427737	-0.572457	0.372783	1.15833	0	0	-0.164485	-0.340672	0.452454	0.768313	0.634927	0	0
0.87	-1.88784	1.39302	0.35777	0.867096	0.699981	0.928583	0.396979	0.193414	-0.222109	0.39012	-0.00969696	0	0	0.180039	-0.282833	-0.114233	1.19931	-0.158956	0	0	0.0108663	0.209389	-0.140666	-0.264441	-0.0427784	-0.579698	0.373837	1.1607	0	0	-0.167562	-0.339974	0.455466	0.764546	0.641017	0	0
0.88	-1.86642	1.3935	0.336848	0.866805	0.690565	0.930054	0.379297	0.197569	-0.215535	0.386023	-0.0055681	0	0	0.203295	-0.283299	-0.100604	1.23894	-0.152187	0	0	0.00703587	0.21082	-0.139925	-0.2665	-0.0441546	-0.572094	0.375268	1.13817	0	0	-0.172756	-0.337767	0.451202	0.760956	0.657862	0	0
0.89	-1.84997	1.39523	0.319598	0.866425	0.68133	0.931561	0.362236	0.200115	-0.207926	0.3821	-0.00164384	0	0	0.226023	-0.282342	-0.0902822	1.27529	-0.134743	0	0	0.00335935	0.210454	-0.13822	-0.2673	-0.0449818	-0.570612	0.374486	1.12973	0	0	-0.17827	-0.336365	0.448848	0.759709	0.65941	0	0
0.9	-1.83963	1.39761	0.307105	0.865944	0.672303	0.933042	0.345897	0.201859	-0.199356	0.377595	0.00185319	0	0	0.248831	-0.280866	-0.0832384	1.30735	-0.114149	0	0	0.000173783	0.209012	-0.135464	-0.268163	-0.0457162	-0.568376	0.373974	1.11983	0	0	-0.184055	-0.334797	0.445464	0.758948	0.660593	0	0
0.91	-1.83382	1.40056	0.297826	0.8654	0.663468	0.934484	0.329954	0.202936	-0.191296	0.372344	0.00537761	0	0	0.271505	-0.278688	-0.0787587	1.33468	-0.0955501	0	0	-0.00291375	0.206817	-0.131361	-0.269168	-0.0464072	-0.564615	0.373871	1.10881	0	0	-0.189817	-0.33318	0.441712	0.758156	0.661118	0	0
0.92	-1.833	1.4035	0.292809	0.864784	0.654825	0.935835	0.314431	0.203945	-0.183276	0.365818	0.00894135	0	0	0.294803	-0.276099	-0.0752921	1.35753	-0.0811055	0	0	-0.00586678	0.204564	-0.125436	-0.262607	-0.0434614	-0.613832	0.36256	1.17523	0	0	-0.194803	-0.332633	0.44118	0.75859	0.651782	0	0
0.93	-1.83211	1.40636	0.286498	0.86416	0.646332	0.937153	0.298077	0.205217	-0.174273	0.357791	0.0122388	0	0	0.317276	-0.273835	-0.0733556	1.37575	-0.0712698	0	0	-0.00932582	0.202566	-0.118999	-0.263981	-0.0437686	-0.613684	0.364412	1.17065	0	0	-0.200352	-0.331183	0.437273	0.758896	0.648954	0	0
0.94	-1.83032	1.40939	0.277524	0.863446	0.637929	0.938437	0.280573	0.206584	-0.163715	0.34834	0.0150185	0	0	0.338148	-0.272267	-0.073728	1.38916	-0.0650138	0	0	-0.0136334	0.200657	-0.110492	-0.266288	-0.0440618	-0.61143	0.368571	1.16502	0	0	-0.205467	-0.329274	0.432271	0.758966	0.648137	0	0
0.95	-1.82808	1.4126	0.267082	0.862632	0.629623	0.939626	0.262945	0.207613	-0.153328	0.338811	0.017784	0	0	0.357854	-0.271377	-0.0757992	1.39804	-0.0601629	0	0	-0.0184786	0.198552	-0.100637	-0.268906	-0.0442001	-0.60839	0.373686	1.1591	0	0	-0.209874	-0.327817	0.428613	0.759186	0.646113	0	0
0.96	-1.82358	1.41596	0.25412	0.861786	0.62131	0.940742	0.244551	0.208473	-0.142238	0.328543	0.0202855	0	0	0.375979	-0.270946	-0.0791809	1.40256	-0.054111	0	0	-0.0237313	0.196264	-0.0905305	-0.270336	-0.0436964	-0.612531	0.377658	1.16397	0	0	-0.214442	-0.326082	0.423238	0.759525	0.645817	0	0
0.97	-1.81653	1.41955	0.237993	0.860876	0.612991	0.94179	0.226282	0.208984	-0.131057	0.319322	0.0224509	0	0	0.392148	-0.271579	-0.0849077	1.40262	-0.0464618	0	0	-0.0295237	0.193689	-0.0798768	-0.271506	-0.0431	-0.615929	0.381831	1.16826	0	0	-0.219276	-0.324168	0.41669	0.759881	0.647627	0	0
0.98	-1.80232	1.42296	0.213052	0.859854	0.604575	0.942788	0.207246	0.20993	-0.118051	0.310792	0.0242074	0	0	0.405357	-0.278666	-0.0989205	1.39897	-0.0373247	0	0	-0.0363645	0.191428	-0.0684558	-0.276923	-0.0446018	-0.59157	0.393317	1.13454	0	0	-0.225318	-0.321347	0.407113	0.759753	0.664133	0	0
0.99	-1.78935	1.42781	0.190032	0.858948	0.596299	0.943775	0.189324	0.208584	-0.104424	0.303984	0.0263824	0	0	0.417244	-0.28003	-0.108834	1.39043	-0.0266107	0	0	-0.0432329	0.187276	-0.0575401	-0.273928	-0.0427183	-0.61276	0.392859	1.17057	0	0	-0.230006	-0.321071	0.406225	0.761575	0.656608	0	0
1	-1.77644	1.43302	0.167588	0.858179	0.58804	0.944689	0.172442	0.206152	-0.0909961	0.298863	0.0290393	0	0	0.428212	-0.278211	-0.115919	1.37778	-0.0149375	0	0	-0.0493618	0.182362	-0.049731	-0.279379	-0.0457444	-0.570256	0.406301	1.10671	0	0	-0.236969	-0.317677	0.39418	0.760765	0.675591	0	0
1.01	-1.7666	1.43871	0.149295	0.85751	0.579835	0.945461	0.157417	0.202443	-0.0794098	0.295911	0.0325159	0	0	0.439019	-0.273936	-0.121102	1.36122	-0.00306739	0	0	-0.0548085	0.176723	-0.0422826	-0.276851	-0.0449791	-0.574764	0.407912	1.11603	0	0	-0.2425	-0.31641	0.390304	0.761153	0.676986	0	0
1.02	-1.75305	1.44451	0.126678	0.856853	0.571704	0.946184	0.142352	0.198695	-0.066024	0.293521	0.0360808	0	0	0.447851	-0.270068	-0.127755	1.3406	0.00873795	0	0	-0.0608854	0.170986	-0.0346634	-0.27387	-0.0446813	-0.576431	0.410109	1.12329	0	0	-0.248139	-0.314525	0.383829	0.761911	0.679437	0	0
1.03	-1.73702	1.45012	0.10185	0.856256	0.563575	0.946826	0.127492	0.194852	-0.0528319	0.291478	0.0403479	0	0	0.455203	-0.26635	-0.134472	1.31621	0.0199569	0	0	-0.0667953	0.165332	-0.0280165	-0.27019	-0.0447369	-0.576293	0.411792	1.12884	0	0	-0.253933	-0.312142	0.376755	0.762062	0.682839	0	0
1.04	-1.71964	1.45556	0.0762642	0.855751	0.555444	0.947348	0.113351	0.190572	-0.0410714	0.290521	0.0452664	0	0	0.461332	-0.262381	-0.140992	1.28808	0.0299616	0	0	-0.0723244	0.159751	-0.0221464	-0.266131	-0.0448709	-0.575576	0.412908	1.13271	0	0	-0.259474	-0.309521	0.370296	0.761683	0.686758	0	0
